<svg width="985" height="495" viewBox="0 0 985 495" fill="none" xmlns="http://www.w3.org/2000/svg">
<g filter="url(#filter0_d)">
<path d="M106.487 79.2586C107.409 76.8483 105.942 69.1538 106.224 66.8446C106.436 65.1127 108.666 60.7973 114.742 59.8373C119.801 59.6042 122.959 62.2361 125.529 67.1916C126.912 69.8583 129.579 76.7425 133.176 76.1743C141.541 74.8527 144.853 73.6519 152.625 70.2707C155.465 69.0348 161.849 65.9825 164.893 65.5016C169.312 64.8034 164.691 74.758 161.202 77.9741C154.661 84.0028 150.126 83.121 141.899 88.384C144.719 91.9015 146.144 100.924 144.604 105.507C142.89 110.607 139.197 114.288 131.552 116.062C124.371 117.197 119.777 116.79 114.369 114.814C109.04 112.866 106.007 110.738 103.873 105.715C102.686 102.92 103.785 94.4057 99.4821 92.2547C92.1267 92.2845 72.88 85.1345 72.0945 80.1632C74.42 76.965 101.749 85.1026 106.487 79.2586Z" fill="#B2D1A8" stroke="#2B2B2B" stroke-width="3" stroke-linecap="round" stroke-linejoin="round"/>
<path d="M113.224 67.606C113.242 67.5256 113.262 67.4482 113.28 67.3772C113.344 67.3767 113.405 67.3792 113.462 67.3851C113.834 67.171 114.313 67.336 114.091 67.9421C114.091 67.943 114.091 67.9439 114.09 67.9448C114.116 68.1028 114.111 68.3 114.07 68.5436C114.026 68.8087 113.712 69.5478 113.287 69.2386C113.125 69.1208 113.128 68.4546 113.097 68.2599C113.053 67.9849 113.114 67.7656 113.224 67.606Z" fill="#B2D1A8"/>
<path d="M113.381 67.0098C113.366 67.0816 112.894 68.5865 113.245 68.6294C113.752 68.6914 113.943 68.3485 114.091 67.9421C114.456 66.9439 112.92 67.1421 113.097 68.2599C113.128 68.4546 113.125 69.1208 113.287 69.2386C113.712 69.5478 114.026 68.8087 114.07 68.5436C114.258 67.4159 113.688 67.2828 112.804 67.4224" stroke="#2B2B2B" stroke-width="3" stroke-linecap="round" stroke-linejoin="round"/>
<path d="M118.655 69.8725C118.168 69.9494 118.022 69.7454 117.938 69.3668C117.911 69.3189 117.897 69.249 117.898 69.1526C117.898 69.1383 117.899 69.1234 117.9 69.1079C117.917 68.8372 118.008 67.581 118.283 67.5209C118.516 67.4699 118.722 67.6043 118.88 67.8314C118.882 67.833 118.884 67.8346 118.886 67.8362C119.04 67.9479 119.083 68.0784 119.071 68.2136C119.308 68.8754 119.249 69.7785 118.655 69.8725Z" fill="#B2D1A8"/>
<path d="M118.258 67.3641C117.819 68.1559 117.757 68.2583 117.891 69.1093C117.976 69.6485 118.066 69.9654 118.655 69.8725C119.642 69.7165 119.152 67.3307 118.283 67.5209C118.008 67.581 117.917 68.8372 117.9 69.1079C117.854 69.8447 118.652 69.224 118.785 68.8878C118.902 68.5887 119.306 68.1417 118.886 67.8362C118.236 67.3636 118.08 68.2671 118.143 68.6679" stroke="#2B2B2B" stroke-width="3" stroke-linecap="round" stroke-linejoin="round"/>
<path d="M115.588 74.3654C115.113 74.336 114.613 74.0511 114.141 73.7353C114.6 73.7565 115.068 73.7089 115.494 73.8268C117.398 74.3537 119.312 73.7298 121.13 73.3381C121.519 73.2543 120.789 73.6013 120.537 73.8781C120.197 74.2506 118.538 74.2296 118.078 74.3024C117.289 74.427 116.337 74.4119 115.588 74.3654Z" fill="#B2D1A8"/>
<path d="M113.044 73.0088C113.759 73.3959 114.716 74.3113 115.588 74.3654C116.337 74.4119 117.289 74.427 118.078 74.3024C118.538 74.2296 120.197 74.2506 120.537 73.8781C120.789 73.6013 121.519 73.2543 121.13 73.3381C119.312 73.7298 117.398 74.3537 115.494 73.8268C114.854 73.6497 114.118 73.8462 113.462 73.6212C112.998 73.4623 112.896 72.7386 112.499 72.6128" stroke="#2B2B2B" stroke-width="3" stroke-linecap="round" stroke-linejoin="round"/>
</g>
<g filter="url(#filter1_d)">
<path d="M595.461 416.801C595.388 419.845 595.169 426.314 595.074 428.036C590.445 431.017 585.266 433.062 579.58 434.34C573.456 435.715 570.77 435.416 566.074 435.889C561.847 436.315 556.597 434.49 553.732 437.701C552.921 438.61 557.072 443.581 559.185 444.742C562.732 446.692 567.283 448.571 571.511 448.435C575.866 448.294 577.337 452.117 579.199 455.061C581.034 457.961 582.162 462.115 583.997 465.015C587.543 470.622 592.317 475.473 599.803 474.998C609.879 474.359 617.139 470.027 621.625 463.693C623.736 460.712 625.46 456.169 626.22 452.794C627.223 448.338 627.519 441.223 629.178 436.936C629.571 435.189 636.823 435.597 643.245 431.535C647.888 428.598 648.859 426.985 651.656 422.718C652.927 420.779 654.144 416.649 654.43 414.469C654.86 411.2 654.148 408.494 653.091 406.824C650.594 408.404 649.545 413.063 642.052 417.803C637.188 420.38 632.004 421.661 627.89 422.265C624.805 422.718 622.274 423.819 620.679 422.83C619.94 422.371 617.523 418.022 617.294 417.478C616.145 414.752 614.87 412.736 613.417 410.439C612.288 408.655 610.756 406.627 609.544 405.895C607.675 404.767 605.146 403.682 602.835 404.408C600.145 405.252 598.786 406.18 597.297 408.647C596.791 409.484 595.534 413.758 595.461 416.801Z" fill="#F4C4C4" stroke="black" stroke-width="3" stroke-linecap="round" stroke-linejoin="round"/>
<path d="M602.436 412.455C602.453 412.109 602.612 411.771 602.803 411.484C602.874 411.288 602.989 411.074 603.139 411.311C603.345 411.637 603.469 411.923 603.553 412.296C603.596 412.489 603.68 412.886 603.41 412.923C603.113 412.964 602.922 412.923 602.641 412.83C602.381 412.743 602.422 412.741 602.436 412.455Z" fill="#F4C4C4"/>
<path d="M602.832 411.44C602.629 411.737 602.454 412.092 602.436 412.455C602.422 412.741 602.381 412.743 602.641 412.83C602.922 412.923 603.113 412.964 603.41 412.923C603.68 412.886 603.596 412.489 603.553 412.296C603.469 411.923 603.345 411.637 603.139 411.311C602.937 410.992 602.799 411.49 602.745 411.661C602.683 411.857 602.638 412.057 602.752 412.237C602.864 412.413 603.007 412.238 603.149 412.147" stroke="black" stroke-width="2" stroke-linecap="round" stroke-linejoin="round"/>
<path d="M606.626 410.467C606.413 410.664 605.415 412.161 606.144 412.166C606.65 412.17 606.84 411.799 606.728 411.325C606.693 411.176 606.614 411.047 606.523 410.921C606.4 410.75 606.326 411.268 606.316 411.311C606.248 411.617 606.257 411.979 606.492 411.589" stroke="black" stroke-width="2" stroke-linecap="round" stroke-linejoin="round"/>
<path d="M604.023 416.912C604.536 417.027 605.027 417.118 605.549 417.017C605.823 416.964 606.13 417.012 606.397 416.952C606.771 416.868 607.129 416.633 607.448 416.432C607.825 416.193 608.232 416 608.612 415.76C608.834 415.619 608.915 415.538 608.998 415.289C609.087 415.022 609.222 414.746 609.296 414.484C609.37 414.225 609.491 413.97 609.55 413.708C609.589 413.535 609.641 413.25 609.724 413.111" stroke="black" stroke-width="2" stroke-linecap="round" stroke-linejoin="round"/>
</g>
<g filter="url(#filter2_d)">
<g filter="url(#filter3_d)">
<path d="M940.579 205.273L940.487 205.466C947.725 210.296 952.667 212.849 959.357 219.544C960.669 220.858 963.816 226.239 962.442 228.297C961.412 229.841 956.517 230.488 950.774 227.949C949.284 227.291 940.48 221.081 937.219 222.624C935.463 225.257 930.524 230.5 927.435 231.715C921.326 234.117 915.105 230.974 910.964 225.187C905.58 217.665 907.538 210.257 907.713 202.192C907.813 197.583 908.747 191.725 909.435 188.465C909.094 182.287 903.848 173.61 901.892 168.556C901.204 166.776 900.696 158.088 902.755 157.231C904.253 156.608 914.821 171.094 916.133 172.852C925.566 186.584 926.658 173.71 938.096 177.837C945.187 181.611 946.5 188.652 945.296 193.799C944.576 196.881 942.683 200.855 940.579 205.273Z" fill="#CBE9EF"/>
<path d="M940.579 205.273L940.487 205.466C947.725 210.296 952.667 212.849 959.357 219.544C960.669 220.858 963.816 226.239 962.442 228.297C961.412 229.841 956.517 230.488 950.774 227.949C949.284 227.291 940.48 221.081 937.219 222.624C935.463 225.257 930.524 230.5 927.435 231.715C921.326 234.117 915.105 230.974 910.964 225.187C905.58 217.665 907.538 210.257 907.713 202.192C907.813 197.583 908.747 191.725 909.435 188.465C909.094 182.287 903.848 173.61 901.892 168.556C901.204 166.776 900.696 158.088 902.755 157.231C904.253 156.608 914.821 171.094 916.133 172.852C925.566 186.584 926.658 173.71 938.096 177.837C945.187 181.611 946.5 188.652 945.296 193.799C944.576 196.881 942.683 200.855 940.579 205.273Z" stroke="#2B2B2B" stroke-width="3" stroke-linecap="round" stroke-linejoin="round"/>
</g>
<path d="M933.932 182.857C934.194 182.581 934.535 182.419 934.902 182.421C935.04 182.359 935.178 182.305 935.283 182.33C935.53 182.389 935.077 182.844 934.994 182.913C934.839 183.042 934.711 183.14 934.574 183.175C934.456 183.403 934.104 183.624 933.863 183.509C933.526 183.347 933.754 183.045 933.932 182.857Z" fill="#CBE9EF"/>
<path d="M935.137 182.445C934.682 182.355 934.248 182.524 933.932 182.857C933.754 183.045 933.526 183.347 933.863 183.509C934.276 183.707 935.017 182.913 934.344 182.793C934.219 182.771 933.956 182.954 934.118 183.062C934.48 183.304 934.687 183.169 934.994 182.913C935.077 182.844 935.53 182.389 935.283 182.33C935.083 182.282 934.764 182.52 934.552 182.562" stroke="#2B2B2B" stroke-width="2" stroke-linecap="round" stroke-linejoin="round"/>
<path d="M936.781 185.134C936.902 185.146 937.052 185.279 937.173 185.395C937.346 185.303 937.544 185.278 937.788 185.229C938.155 185.156 938.479 185.377 938.23 185.75C938.143 185.881 938.041 186.015 937.922 186.121C937.763 186.263 937.572 186.355 937.338 186.326C937.171 186.305 936.885 186.154 936.674 185.969C936.53 185.843 936.421 185.701 936.409 185.574C936.397 185.45 936.64 185.119 936.781 185.134Z" fill="#CBE9EF"/>
<path d="M938.178 186.335C937.863 186.105 937.614 185.794 937.32 185.537C937.202 185.433 936.96 185.152 936.781 185.134C936.64 185.119 936.397 185.45 936.409 185.574C936.44 185.887 937.057 186.29 937.338 186.326C937.748 186.377 938.027 186.055 938.23 185.75C938.479 185.377 938.155 185.156 937.788 185.229C937.383 185.31 937.105 185.325 936.859 185.693C936.653 186.002 936.47 186.153 936.839 186.399C937.001 186.508 937.176 186.568 937.333 186.672" stroke="#2B2B2B" stroke-width="2" stroke-linecap="round" stroke-linejoin="round"/>
<path d="M929.818 184.724C930.05 185.402 930.138 186.126 930.272 186.83C930.326 187.116 930.343 187.407 930.384 187.694C930.422 187.956 930.531 188.199 930.598 188.454C930.644 188.63 930.787 188.771 930.878 188.925C931.037 189.196 931.223 189.437 931.409 189.687C931.729 190.116 932.114 190.507 932.496 190.879C933.001 191.37 933.674 191.587 934.353 191.695C934.649 191.742 935.027 191.875 935.305 191.995C935.46 192.062 935.63 192.096 935.77 192.19" stroke="#2B2B2B" stroke-width="2" stroke-linecap="round" stroke-linejoin="round"/>
</g>
<g filter="url(#filter4_d)">
<g filter="url(#filter5_d)">
<path d="M87.8691 339.894C87.3191 345.543 86.4292 348.184 83.4461 351.528C81.0331 354.232 74.5284 357.428 72.2402 358.027L69.0297 358.498C68.4368 358.591 67.8645 358.678 67.3888 358.739C65.9557 358.924 62.692 358.764 58.9914 357.57C55.9075 356.576 54.7098 356.092 52.6977 355.071C50.3623 353.886 47.6664 351.774 45.228 349.781C42.7896 347.789 41.3416 346.412 38.1359 346.02C35.9206 346.243 30.1318 347.499 27.3255 347.556C23.1114 347.642 20.8969 347.069 16.8673 345.923C12.2978 344.625 6.95901 338.641 7.00215 336.847C7.04374 335.117 14.0159 333.073 16.2157 332.786C19.5145 332.356 24.8109 331.473 28.5546 330.873C31.8776 330.538 38.4551 326.967 41.1343 324.683C41.5299 324.346 37.4773 317.57 37.6493 314.516C37.8901 310.24 40.6357 307.325 44.09 305.14C49.5943 301.659 54.3813 302.171 59.5542 305.374C61.5124 306.586 66.8733 312.141 69.0415 312.922C74.5367 314.159 80.3158 309.325 90.8601 307.368C96.6101 307.145 103.062 299.65 105.389 300.535C107.742 301.429 104.982 307.944 102.649 311.105C100.424 314.118 90.2634 317.939 89.8285 321.57C88.1708 327.332 88.6422 336.459 87.8691 339.894Z" fill="#CBE9EF"/>
<path d="M72.2402 358.027C71.1325 358.138 68.8219 358.554 67.3888 358.739M72.2402 358.027L67.3888 358.739M72.2402 358.027C74.5284 357.428 81.0331 354.232 83.4461 351.528C86.4292 348.184 87.3191 345.543 87.8691 339.894C88.6422 336.459 88.1708 327.332 89.8285 321.57C90.2634 317.939 100.424 314.118 102.649 311.105C104.982 307.944 107.742 301.429 105.389 300.535C103.062 299.65 96.6101 307.145 90.8601 307.368C80.3158 309.325 74.5367 314.159 69.0415 312.922C66.8733 312.141 61.5124 306.586 59.5542 305.374C54.3813 302.171 49.5943 301.659 44.09 305.14C40.6357 307.325 37.8901 310.24 37.6493 314.516C37.4773 317.57 41.5299 324.346 41.1343 324.683C38.4551 326.967 31.8776 330.538 28.5546 330.873C24.8109 331.473 19.5145 332.356 16.2157 332.786C14.0159 333.073 7.04374 335.117 7.00215 336.847C6.95901 338.641 12.2978 344.625 16.8673 345.923C20.8969 347.069 23.1114 347.642 27.3255 347.556C30.1318 347.499 35.9206 346.243 38.1359 346.02C41.3416 346.412 42.7896 347.789 45.228 349.781C47.6664 351.774 50.3623 353.886 52.6977 355.071C54.7098 356.092 55.9075 356.576 58.9914 357.57C62.692 358.764 65.9557 358.924 67.3888 358.739" stroke="black" stroke-width="3" stroke-linecap="round" stroke-linejoin="round"/>
</g>
<path d="M45.0407 314.136C45.0399 314.459 44.8589 314.416 44.6693 314.273C44.6791 314.409 44.6681 314.509 44.6418 314.576C44.5678 314.765 44.373 314.692 44.178 314.418C44.1068 314.381 44.0373 314.344 43.9721 314.311C43.4502 314.043 43.2104 313.749 42.9068 313.269C42.6595 312.878 43.4204 312.726 43.6689 312.832C43.967 312.958 44.2139 313.176 44.3883 313.442C44.8306 313.29 45.042 313.678 45.0407 314.136Z" fill="#CBE9EF"/>
<path d="M44.2689 313.852C44.4112 314.065 45.0391 314.739 45.0407 314.136C45.0421 313.628 44.7817 313.205 44.2347 313.512C43.8973 313.702 43.9443 314.052 44.13 314.346C44.4234 314.81 44.7389 314.825 44.6608 314.186C44.5892 313.6 44.2149 313.064 43.6689 312.832C43.4204 312.726 42.6595 312.878 42.9068 313.269C43.2104 313.749 43.4502 314.043 43.9721 314.311C44.3068 314.482 44.7543 314.765 44.9756 314.398" stroke="black" stroke-width="2" stroke-linecap="round" stroke-linejoin="round"/>
<path d="M47.3554 310.023C48.1131 309.931 48.4345 310.426 48.7865 310.999C48.8982 311.136 49.0076 311.313 49.0507 311.459C49.1038 311.638 49.056 311.769 48.7873 311.716C48.1831 311.597 47.5169 311.278 47.1804 310.746C47.0374 310.52 46.998 310.067 47.3554 310.023Z" fill="#CBE9EF"/>
<path d="M47.058 310.553C47.4558 311.182 48.0519 312.523 48.9927 312.469C49.6546 312.432 49.0057 311.357 48.8242 311.061C48.4569 310.462 48.1401 309.927 47.3554 310.023C46.998 310.067 47.0374 310.52 47.1804 310.746C47.5169 311.278 48.1831 311.597 48.7873 311.716C49.4312 311.843 48.8065 310.914 48.5648 310.793C48.4622 310.742 47.6065 310.299 47.6396 310.727C47.651 310.874 47.9316 311.288 48.0569 311.275" stroke="black" stroke-width="2" stroke-linecap="round" stroke-linejoin="round"/>
<path d="M52.4178 314.973C52.4227 315.059 52.4095 315.141 52.384 315.22C51.5085 315.777 50.7142 316.314 50.0174 317.118C49.9834 317.157 49.1053 318.505 48.9753 318.143C48.8207 317.713 49.4916 317.188 49.7531 316.954C50.2444 316.515 50.7427 315.914 51.2852 315.554C51.4001 315.477 52.4094 314.825 52.4178 314.973Z" fill="#CBE9EF"/>
<path d="M46.8732 318.254C47.6593 318.565 49.015 318.862 49.7937 318.303C50.0195 318.141 50.156 317.681 50.3468 317.457C50.576 317.187 50.9151 317.015 51.1827 316.787C51.4278 316.578 51.7199 316.257 51.8889 315.984C52.0806 315.675 52.4405 315.371 52.4178 314.973C52.4094 314.825 51.4001 315.477 51.2852 315.554C50.7427 315.914 50.2444 316.515 49.7531 316.954C49.4916 317.188 48.8207 317.713 48.9753 318.143C49.1053 318.505 49.9834 317.157 50.0174 317.118C50.7931 316.223 51.6897 315.659 52.6846 315.03C52.9306 314.874 53.3471 314.705 53.5318 314.474C53.7002 314.263 53.8325 313.739 53.9179 313.482C54.079 312.998 54.1464 312.48 54.4112 312.041" stroke="black" stroke-width="2" stroke-linecap="round" stroke-linejoin="round"/>
</g>
<g filter="url(#filter6_d)">
<path d="M821.967 13.9106C823.562 15.7856 826.987 19.7358 827.917 20.7673C831.89 20.0876 835.674 18.5143 839.333 16.1782C843.274 13.6624 844.542 11.9907 847.267 9.69489C849.719 7.62866 851.562 3.58126 854.719 4.01995C855.612 4.14413 855.96 9.56487 855.437 11.4624C854.559 14.6487 853.114 18.3443 850.808 20.5932C848.434 22.9094 849.611 26.1273 850.132 29.009C850.646 31.8469 852.173 35.0844 852.687 37.9223C853.679 43.4094 853.637 49.0987 849.436 52.9339C843.782 58.0961 837.727 59.3788 832.116 57.8696C829.476 57.1594 826.24 55.2528 824.112 53.548C821.303 51.2975 817.508 46.9831 814.438 45.2013C813.337 44.3188 809.711 48.5804 804.238 49.5704C800.281 50.2861 798.943 49.807 795.282 48.6662C793.619 48.1476 790.862 46.2203 789.596 45.007C787.697 43.187 786.69 41.0908 786.394 39.4562C788.523 39.0712 791.46 41.4245 797.846 40.2696C801.735 39.2054 805.131 37.1488 807.615 35.2571C809.478 33.8384 811.38 33.1338 811.717 31.6305C811.873 30.934 810.927 26.8617 810.77 26.393C809.983 24.0428 809.626 22.0698 809.22 19.8222C808.904 18.0764 808.677 15.9539 808.944 14.8239C809.355 13.0816 810.136 11.0022 811.73 10.1827C813.584 9.22907 814.777 9.06225 816.826 9.79228C817.521 10.0401 820.372 12.0356 821.967 13.9106Z" fill="#5E60B3" stroke="#2B2B2B" stroke-width="3" stroke-linecap="round" stroke-linejoin="round"/>
<path d="M816.056 15.0267C815.871 14.8187 815.614 14.6936 815.366 14.6182C815.228 14.5343 815.058 14.4633 815.1 14.6953C815.158 15.0144 815.238 15.2631 815.385 15.5435C815.46 15.6888 815.619 15.9849 815.781 15.8592C815.959 15.7212 816.039 15.5899 816.14 15.3757C816.233 15.1779 816.21 15.1989 816.056 15.0267Z" fill="#5E60B3"/>
<path d="M815.328 14.6071C815.587 14.6811 815.861 14.8081 816.056 15.0267C816.21 15.1989 816.233 15.1779 816.14 15.3757C816.039 15.5899 815.959 15.7212 815.781 15.8592C815.619 15.9849 815.46 15.6888 815.385 15.5435C815.238 15.2631 815.158 15.0144 815.1 14.6953C815.043 14.383 815.371 14.6199 815.488 14.698C815.62 14.7872 815.746 14.8881 815.778 15.0641C815.809 15.2367 815.644 15.2054 815.522 15.2274" stroke="#2B2B2B" stroke-width="2" stroke-linecap="round" stroke-linejoin="round"/>
<path d="M812.825 16.0894C813.038 16.0955 814.331 16.4867 813.948 16.8925C813.682 17.1745 813.393 17.0457 813.209 16.6856C813.151 16.5727 813.127 16.4476 813.111 16.3185C813.088 16.1429 813.392 16.4277 813.42 16.4499C813.613 16.6044 813.792 16.837 813.469 16.7218" stroke="#2B2B2B" stroke-width="2" stroke-linecap="round" stroke-linejoin="round"/>
<path d="M817.497 18.7082C817.285 19.0637 817.072 19.392 816.744 19.6167C816.572 19.735 816.434 19.9345 816.262 20.0445C816.021 20.1981 815.712 20.248 815.44 20.2971C815.119 20.3553 814.805 20.4588 814.482 20.5174C814.292 20.5517 814.207 20.5449 814.036 20.4341C813.853 20.315 813.64 20.2159 813.467 20.0924C813.296 19.9698 813.101 19.8763 812.936 19.7439C812.827 19.6568 812.654 19.5057 812.539 19.4646" stroke="#2B2B2B" stroke-width="2" stroke-linecap="round" stroke-linejoin="round"/>
</g>
<defs>
<filter id="filter0_d" x="68.2842" y="50.2842" width="110.856" height="79.7845" filterUnits="userSpaceOnUse" color-interpolation-filters="sRGB">
<feFlood flood-opacity="0" result="BackgroundImageFix"/>
<feColorMatrix in="SourceAlpha" type="matrix" values="0 0 0 0 0 0 0 0 0 0 0 0 0 0 0 0 0 0 127 0"/>
<feOffset dx="4" dy="4"/>
<feColorMatrix type="matrix" values="0 0 0 0 0.698039 0 0 0 0 0.819608 0 0 0 0 0.658824 0 0 0 1 0"/>
<feBlend mode="normal" in2="BackgroundImageFix" result="effect1_dropShadow"/>
<feBlend mode="normal" in="SourceGraphic" in2="effect1_dropShadow" result="shape"/>
</filter>
<filter id="filter1_d" x="545.93" y="379.931" width="126.966" height="115.013" filterUnits="userSpaceOnUse" color-interpolation-filters="sRGB">
<feFlood flood-opacity="0" result="BackgroundImageFix"/>
<feColorMatrix in="SourceAlpha" type="matrix" values="0 0 0 0 0 0 0 0 0 0 0 0 0 0 0 0 0 0 127 0"/>
<feOffset dx="-4" dy="4"/>
<feColorMatrix type="matrix" values="0 0 0 0 0.956863 0 0 0 0 0.764706 0 0 0 0 0.764706 0 0 0 1 0"/>
<feBlend mode="normal" in2="BackgroundImageFix" result="effect1_dropShadow"/>
<feBlend mode="normal" in="SourceGraphic" in2="effect1_dropShadow" result="shape"/>
</filter>
<filter id="filter2_d" x="870.922" y="152.919" width="113.443" height="104.199" filterUnits="userSpaceOnUse" color-interpolation-filters="sRGB">
<feFlood flood-opacity="0" result="BackgroundImageFix"/>
<feColorMatrix in="SourceAlpha" type="matrix" values="0 0 0 0 0 0 0 0 0 0 0 0 0 0 0 0 0 0 127 0"/>
<feOffset dx="4" dy="4"/>
<feColorMatrix type="matrix" values="0 0 0 0 0.796078 0 0 0 0 0.913725 0 0 0 0 0.937255 0 0 0 1 0"/>
<feBlend mode="normal" in2="BackgroundImageFix" result="effect1_dropShadow"/>
<feBlend mode="normal" in="SourceGraphic" in2="effect1_dropShadow" result="shape"/>
</filter>
<filter id="filter3_d" x="870.922" y="152.919" width="109.443" height="104.199" filterUnits="userSpaceOnUse" color-interpolation-filters="sRGB">
<feFlood flood-opacity="0" result="BackgroundImageFix"/>
<feColorMatrix in="SourceAlpha" type="matrix" values="0 0 0 0 0 0 0 0 0 0 0 0 0 0 0 0 0 0 127 0"/>
<feOffset dy="4"/>
<feColorMatrix type="matrix" values="0 0 0 0 0.796078 0 0 0 0 0.913725 0 0 0 0 0.937255 0 0 0 1 0"/>
<feBlend mode="normal" in2="BackgroundImageFix" result="effect1_dropShadow"/>
<feBlend mode="normal" in="SourceGraphic" in2="effect1_dropShadow" result="shape"/>
</filter>
<filter id="filter4_d" x="0.93042" y="273.93" width="127.756" height="114.583" filterUnits="userSpaceOnUse" color-interpolation-filters="sRGB">
<feFlood flood-opacity="0" result="BackgroundImageFix"/>
<feColorMatrix in="SourceAlpha" type="matrix" values="0 0 0 0 0 0 0 0 0 0 0 0 0 0 0 0 0 0 127 0"/>
<feOffset dx="4" dy="4"/>
<feColorMatrix type="matrix" values="0 0 0 0 1 0 0 0 0 0.921569 0 0 0 0 0.827451 0 0 0 1 0"/>
<feBlend mode="normal" in2="BackgroundImageFix" result="effect1_dropShadow"/>
<feBlend mode="normal" in="SourceGraphic" in2="effect1_dropShadow" result="shape"/>
</filter>
<filter id="filter5_d" x="0.93042" y="273.93" width="123.756" height="114.583" filterUnits="userSpaceOnUse" color-interpolation-filters="sRGB">
<feFlood flood-opacity="0" result="BackgroundImageFix"/>
<feColorMatrix in="SourceAlpha" type="matrix" values="0 0 0 0 0 0 0 0 0 0 0 0 0 0 0 0 0 0 127 0"/>
<feOffset dy="4"/>
<feColorMatrix type="matrix" values="0 0 0 0 0.796078 0 0 0 0 0.913725 0 0 0 0 0.937255 0 0 0 1 0"/>
<feBlend mode="normal" in2="BackgroundImageFix" result="effect1_dropShadow"/>
<feBlend mode="normal" in="SourceGraphic" in2="effect1_dropShadow" result="shape"/>
</filter>
<filter id="filter6_d" x="776.257" y="0.256836" width="89.6138" height="72.3819" filterUnits="userSpaceOnUse" color-interpolation-filters="sRGB">
<feFlood flood-opacity="0" result="BackgroundImageFix"/>
<feColorMatrix in="SourceAlpha" type="matrix" values="0 0 0 0 0 0 0 0 0 0 0 0 0 0 0 0 0 0 127 0"/>
<feOffset dx="-4" dy="4"/>
<feColorMatrix type="matrix" values="0 0 0 0 0.368627 0 0 0 0 0.376471 0 0 0 0 0.701961 0 0 0 1 0"/>
<feBlend mode="normal" in2="BackgroundImageFix" result="effect1_dropShadow"/>
<feBlend mode="normal" in="SourceGraphic" in2="effect1_dropShadow" result="shape"/>
</filter>
</defs>
</svg>
